# xmcd
#
# Track frame offsets: 
#        150
#        15800
#        29760
#        42822
#        52945
#        71947
#        86397
#        101427
#        114755
#        132757
#        152960
#        172882
#        190612
#        206612
#        223417
#        241995
#        259945
#
# Disc length: 3764 seconds
#
# Revision: 2
# Processed by: cddbd v1.5.2PL0 Copyright (c) Steve Scherf et al.
# Submitted via: ExactAudioCopy v0.99pb5
#
DISCID=e00eb211
DTITLE=Various Artist - 7-Ball Gas Collection 1
DYEAR=1997
DGENRE=Christian Rock
TTITLE0=Smash Hit - All Star United
TTITLE1=I love the Radio - Silage
TTITLE2=Crazy - Plumb
TTITLE3=Ode to Chin - Switchfoot
TTITLE4=Fistful of Sand - Five Iron Frenzy
TTITLE5=Everything I Hate - Smalltown Poets
TTITLE6=Angel - Curious Fools
TTITLE7=Life, Life, Life - Miss Angie
TTITLE8=Just Say It - Kosmo Express
TTITLE9=Break Hard the Wishbone - Sarah Mason
TTITLE10=Nervous - Dryve
TTITLE11=Everybody Please Join Hands - Say-So
TTITLE12=Yeah, Sure, OK, Monet - Dime Store Prophets
TTITLE13=New Years Day - Carolyn Arends
TTITLE14=Mirage - Grits
TTITLE15=After the Rain - Mancy A'Lan Kane
TTITLE16=The Lord's Rest - Danielson Family
EXTD=
EXTT0=
EXTT1=
EXTT2=
EXTT3=
EXTT4=
EXTT5=
EXTT6=
EXTT7=
EXTT8=
EXTT9=
EXTT10=
EXTT11=
EXTT12=
EXTT13=
EXTT14=
EXTT15=
EXTT16=
PLAYORDER=
